<svg xmlns="http://www.w3.org/2000/svg" width="1349" height="297" viewBox="0 0 1349 297" fill="none">
  <g filter="url(#filter0_d_224_18)">
    <mask id="path-1-outside-1_224_18" maskUnits="userSpaceOnUse" x="32" y="31" width="1285" height="233" fill="black">
      <rect fill="white" x="32" y="31" width="1285" height="233"/>
      <path d="M103.632 258.918H33V40.7358H105.869C127.247 40.7358 145.607 45.1037 160.947 53.8395C176.288 62.5043 188.043 74.9687 196.21 91.233C204.449 107.426 208.568 126.851 208.568 149.507C208.568 172.234 204.413 191.766 196.104 208.101C187.865 224.436 175.933 237.007 160.308 245.814C144.683 254.55 125.791 258.918 103.632 258.918ZM65.919 230.153H101.821C118.44 230.153 132.254 227.028 143.263 220.778C154.271 214.457 162.51 205.331 167.979 193.399C173.447 181.396 176.182 166.766 176.182 149.507C176.182 132.391 173.447 117.866 167.979 105.935C162.581 94.0028 154.52 84.9474 143.795 78.7685C133.071 72.5895 119.754 69.5 103.845 69.5H65.919V230.153Z"/>
      <path d="M294.568 262.54C284.199 262.54 274.824 260.622 266.443 256.787C258.062 252.881 251.422 247.234 246.521 239.848C241.691 232.462 239.277 223.406 239.277 212.682C239.277 203.449 241.052 195.849 244.603 189.884C248.154 183.918 252.949 179.195 258.985 175.714C265.022 172.234 271.77 169.607 279.227 167.831C286.684 166.055 294.284 164.706 302.025 163.783C311.826 162.646 319.781 161.723 325.889 161.013C331.997 160.232 336.436 158.989 339.206 157.284C341.975 155.58 343.36 152.81 343.36 148.974V148.229C343.36 138.925 340.733 131.716 335.477 126.602C330.292 121.489 322.551 118.932 312.252 118.932C301.528 118.932 293.076 121.311 286.897 126.07C280.789 130.757 276.564 135.977 274.22 141.73L244.284 134.912C247.835 124.969 253.02 116.943 259.838 110.835C266.727 104.656 274.646 100.182 283.595 97.4119C292.544 94.571 301.954 93.1506 311.826 93.1506C318.36 93.1506 325.285 93.9318 332.6 95.4943C339.987 96.9858 346.876 99.7557 353.268 103.804C359.731 107.852 365.022 113.641 369.142 121.169C373.261 128.626 375.321 138.321 375.321 150.253V258.918H344.213V236.545H342.934C340.875 240.665 337.785 244.713 333.666 248.69C329.547 252.668 324.255 255.97 317.792 258.598C311.329 261.226 303.588 262.54 294.568 262.54ZM301.493 236.972C310.299 236.972 317.828 235.232 324.078 231.751C330.399 228.271 335.193 223.726 338.46 218.115C341.798 212.433 343.467 206.361 343.467 199.898V178.804C342.331 179.94 340.129 181.006 336.862 182C333.666 182.923 330.008 183.74 325.889 184.45C321.77 185.089 317.757 185.693 313.85 186.261C309.944 186.759 306.677 187.185 304.049 187.54C297.87 188.321 292.224 189.635 287.11 191.482C282.068 193.328 278.02 195.991 274.966 199.472C271.983 202.881 270.491 207.426 270.491 213.108C270.491 220.991 273.403 226.957 279.227 231.006C285.051 234.983 292.473 236.972 301.493 236.972Z"/>
      <path d="M494.133 95.2812V120.849H404.751V95.2812H494.133ZM428.721 56.0767H460.575V210.871C460.575 217.05 461.498 221.702 463.344 224.827C465.191 227.881 467.57 229.976 470.482 231.112C473.465 232.178 476.697 232.71 480.177 232.71C482.734 232.71 484.971 232.533 486.888 232.178C488.806 231.822 490.298 231.538 491.363 231.325L497.116 257.639C495.269 258.349 492.641 259.06 489.232 259.77C485.823 260.551 481.562 260.977 476.448 261.048C468.067 261.19 460.255 259.699 453.011 256.574C445.766 253.449 439.907 248.619 435.433 242.085C430.958 235.551 428.721 227.348 428.721 217.476V56.0767Z"/>
      <path d="M576.99 262.54C566.62 262.54 557.245 260.622 548.865 256.787C540.484 252.881 533.843 247.234 528.943 239.848C524.113 232.462 521.699 223.406 521.699 212.682C521.699 203.449 523.474 195.849 527.025 189.884C530.576 183.918 535.37 179.195 541.407 175.714C547.444 172.234 554.191 169.607 561.649 167.831C569.106 166.055 576.706 164.706 584.447 163.783C594.248 162.646 602.203 161.723 608.311 161.013C614.419 160.232 618.858 158.989 621.628 157.284C624.397 155.58 625.782 152.81 625.782 148.974V148.229C625.782 138.925 623.154 131.716 617.899 126.602C612.714 121.489 604.973 118.932 594.674 118.932C583.95 118.932 575.498 121.311 569.319 126.07C563.211 130.757 558.985 135.977 556.642 141.73L526.706 134.912C530.257 124.969 535.441 116.943 542.26 110.835C549.149 104.656 557.068 100.182 566.017 97.4119C574.966 94.571 584.376 93.1506 594.248 93.1506C600.782 93.1506 607.707 93.9318 615.022 95.4943C622.409 96.9858 629.298 99.7557 635.69 103.804C642.153 107.852 647.444 113.641 651.564 121.169C655.683 128.626 657.743 138.321 657.743 150.253V258.918H626.635V236.545H625.356C623.297 240.665 620.207 244.713 616.088 248.69C611.968 252.668 606.677 255.97 600.214 258.598C593.751 261.226 586.01 262.54 576.99 262.54ZM583.914 236.972C592.721 236.972 600.25 235.232 606.5 231.751C612.821 228.271 617.615 223.726 620.882 218.115C624.22 212.433 625.889 206.361 625.889 199.898V178.804C624.752 179.94 622.551 181.006 619.284 182C616.088 182.923 612.43 183.74 608.311 184.45C604.191 185.089 600.179 185.693 596.272 186.261C592.366 186.759 589.099 187.185 586.471 187.54C580.292 188.321 574.646 189.635 569.532 191.482C564.49 193.328 560.441 195.991 557.387 199.472C554.404 202.881 552.913 207.426 552.913 213.108C552.913 220.991 555.825 226.957 561.649 231.006C567.473 234.983 574.895 236.972 583.914 236.972Z"/>
      <path d="M769.097 262.22C753.259 262.22 739.623 258.634 728.188 251.46C716.825 244.216 708.089 234.237 701.981 221.524C695.873 208.811 692.819 194.251 692.819 177.845C692.819 161.226 695.944 146.56 702.194 133.847C708.444 121.062 717.251 111.084 728.614 103.911C739.978 96.7372 753.366 93.1506 768.778 93.1506C781.207 93.1506 792.286 95.4588 802.016 100.075C811.746 104.621 819.594 111.013 825.56 119.251C831.597 127.49 835.184 137.114 836.32 148.122H805.319C803.614 140.452 799.708 133.847 793.6 128.307C787.563 122.767 779.467 119.997 769.31 119.997C760.433 119.997 752.656 122.341 745.979 127.028C739.374 131.645 734.225 138.25 730.532 146.844C726.839 155.366 724.992 165.452 724.992 177.099C724.992 189.031 726.803 199.33 730.425 207.994C734.048 216.659 739.161 223.371 745.766 228.129C752.442 232.888 760.29 235.267 769.31 235.267C775.347 235.267 780.816 234.166 785.717 231.964C790.688 229.692 794.843 226.46 798.181 222.27C801.59 218.08 803.969 213.037 805.319 207.142H836.32C835.184 217.724 831.739 227.17 825.987 235.48C820.234 243.79 812.528 250.324 802.869 255.082C793.281 259.841 782.023 262.22 769.097 262.22Z"/>
      <path d="M870.385 258.918V95.2812H902.238V258.918H870.385ZM886.471 70.0327C880.931 70.0327 876.173 68.1861 872.196 64.4929C868.289 60.7287 866.336 56.2543 866.336 51.0696C866.336 45.8139 868.289 41.3395 872.196 37.6463C876.173 33.8821 880.931 32 886.471 32C892.011 32 896.734 33.8821 900.64 37.6463C904.618 41.3395 906.606 45.8139 906.606 51.0696C906.606 56.2543 904.618 60.7287 900.64 64.4929C896.734 68.1861 892.011 70.0327 886.471 70.0327Z"/>
      <path d="M1085.08 95.2812L1025.74 258.918H991.647L932.201 95.2812H966.398L1007.84 221.205H1009.54L1050.88 95.2812H1085.08Z"/>
      <path d="M1115.01 258.918V95.2812H1146.87V258.918H1115.01ZM1131.1 70.0327C1125.56 70.0327 1120.8 68.1861 1116.82 64.4929C1112.92 60.7287 1110.97 56.2543 1110.97 51.0696C1110.97 45.8139 1112.92 41.3395 1116.82 37.6463C1120.8 33.8821 1125.56 32 1131.1 32C1136.64 32 1141.36 33.8821 1145.27 37.6463C1149.25 41.3395 1151.24 45.8139 1151.24 51.0696C1151.24 56.2543 1149.25 60.7287 1145.27 64.4929C1141.36 68.1861 1136.64 70.0327 1131.1 70.0327Z"/>
      <path d="M1312.34 135.232L1283.47 140.345C1282.26 136.652 1280.35 133.136 1277.72 129.798C1275.16 126.46 1271.68 123.726 1267.28 121.595C1262.87 119.464 1257.37 118.399 1250.76 118.399C1241.74 118.399 1234.22 120.423 1228.18 124.472C1222.14 128.449 1219.12 133.598 1219.12 139.919C1219.12 145.388 1221.15 149.791 1225.2 153.129C1229.24 156.467 1235.78 159.202 1244.8 161.332L1270.79 167.298C1285.85 170.778 1297.07 176.141 1304.46 183.385C1311.84 190.629 1315.54 200.04 1315.54 211.616C1315.54 221.418 1312.7 230.153 1307.01 237.824C1301.4 245.423 1293.56 251.389 1283.47 255.722C1273.46 260.054 1261.84 262.22 1248.63 262.22C1230.31 262.22 1215.36 258.314 1203.78 250.501C1192.21 242.618 1185.1 231.432 1182.48 216.943L1213.26 212.256C1215.18 220.281 1219.12 226.354 1225.09 230.473C1231.06 234.521 1238.83 236.545 1248.42 236.545C1258.86 236.545 1267.21 234.379 1273.46 230.047C1279.71 225.643 1282.83 220.281 1282.83 213.96C1282.83 208.847 1280.91 204.55 1277.08 201.07C1273.31 197.589 1267.53 194.962 1259.71 193.186L1232.01 187.114C1216.74 183.634 1205.45 178.094 1198.14 170.494C1190.89 162.895 1187.27 153.271 1187.27 141.624C1187.27 131.964 1189.97 123.513 1195.37 116.268C1200.76 109.024 1208.22 103.378 1217.74 99.3295C1227.26 95.2102 1238.16 93.1506 1250.44 93.1506C1268.13 93.1506 1282.05 96.9858 1292.21 104.656C1302.36 112.256 1309.07 122.447 1312.34 135.232Z"/>
    </mask>
    <path d="M103.632 258.918H33V40.7358H105.869C127.247 40.7358 145.607 45.1037 160.947 53.8395C176.288 62.5043 188.043 74.9687 196.21 91.233C204.449 107.426 208.568 126.851 208.568 149.507C208.568 172.234 204.413 191.766 196.104 208.101C187.865 224.436 175.933 237.007 160.308 245.814C144.683 254.55 125.791 258.918 103.632 258.918ZM65.919 230.153H101.821C118.44 230.153 132.254 227.028 143.263 220.778C154.271 214.457 162.51 205.331 167.979 193.399C173.447 181.396 176.182 166.766 176.182 149.507C176.182 132.391 173.447 117.866 167.979 105.935C162.581 94.0028 154.52 84.9474 143.795 78.7685C133.071 72.5895 119.754 69.5 103.845 69.5H65.919V230.153Z" fill="url(#paint0_linear_224_18)"/>
    <path d="M294.568 262.54C284.199 262.54 274.824 260.622 266.443 256.787C258.062 252.881 251.422 247.234 246.521 239.848C241.691 232.462 239.277 223.406 239.277 212.682C239.277 203.449 241.052 195.849 244.603 189.884C248.154 183.918 252.949 179.195 258.985 175.714C265.022 172.234 271.77 169.607 279.227 167.831C286.684 166.055 294.284 164.706 302.025 163.783C311.826 162.646 319.781 161.723 325.889 161.013C331.997 160.232 336.436 158.989 339.206 157.284C341.975 155.58 343.36 152.81 343.36 148.974V148.229C343.36 138.925 340.733 131.716 335.477 126.602C330.292 121.489 322.551 118.932 312.252 118.932C301.528 118.932 293.076 121.311 286.897 126.07C280.789 130.757 276.564 135.977 274.22 141.73L244.284 134.912C247.835 124.969 253.02 116.943 259.838 110.835C266.727 104.656 274.646 100.182 283.595 97.4119C292.544 94.571 301.954 93.1506 311.826 93.1506C318.36 93.1506 325.285 93.9318 332.6 95.4943C339.987 96.9858 346.876 99.7557 353.268 103.804C359.731 107.852 365.022 113.641 369.142 121.169C373.261 128.626 375.321 138.321 375.321 150.253V258.918H344.213V236.545H342.934C340.875 240.665 337.785 244.713 333.666 248.69C329.547 252.668 324.255 255.97 317.792 258.598C311.329 261.226 303.588 262.54 294.568 262.54ZM301.493 236.972C310.299 236.972 317.828 235.232 324.078 231.751C330.399 228.271 335.193 223.726 338.46 218.115C341.798 212.433 343.467 206.361 343.467 199.898V178.804C342.331 179.94 340.129 181.006 336.862 182C333.666 182.923 330.008 183.74 325.889 184.45C321.77 185.089 317.757 185.693 313.85 186.261C309.944 186.759 306.677 187.185 304.049 187.54C297.87 188.321 292.224 189.635 287.11 191.482C282.068 193.328 278.02 195.991 274.966 199.472C271.983 202.881 270.491 207.426 270.491 213.108C270.491 220.991 273.403 226.957 279.227 231.006C285.051 234.983 292.473 236.972 301.493 236.972Z" fill="url(#paint1_linear_224_18)"/>
    <path d="M494.133 95.2812V120.849H404.751V95.2812H494.133ZM428.721 56.0767H460.575V210.871C460.575 217.05 461.498 221.702 463.344 224.827C465.191 227.881 467.57 229.976 470.482 231.112C473.465 232.178 476.697 232.71 480.177 232.71C482.734 232.71 484.971 232.533 486.888 232.178C488.806 231.822 490.298 231.538 491.363 231.325L497.116 257.639C495.269 258.349 492.641 259.06 489.232 259.77C485.823 260.551 481.562 260.977 476.448 261.048C468.067 261.19 460.255 259.699 453.011 256.574C445.766 253.449 439.907 248.619 435.433 242.085C430.958 235.551 428.721 227.348 428.721 217.476V56.0767Z" fill="url(#paint2_linear_224_18)"/>
    <path d="M576.99 262.54C566.62 262.54 557.245 260.622 548.865 256.787C540.484 252.881 533.843 247.234 528.943 239.848C524.113 232.462 521.699 223.406 521.699 212.682C521.699 203.449 523.474 195.849 527.025 189.884C530.576 183.918 535.37 179.195 541.407 175.714C547.444 172.234 554.191 169.607 561.649 167.831C569.106 166.055 576.706 164.706 584.447 163.783C594.248 162.646 602.203 161.723 608.311 161.013C614.419 160.232 618.858 158.989 621.628 157.284C624.397 155.58 625.782 152.81 625.782 148.974V148.229C625.782 138.925 623.154 131.716 617.899 126.602C612.714 121.489 604.973 118.932 594.674 118.932C583.95 118.932 575.498 121.311 569.319 126.07C563.211 130.757 558.985 135.977 556.642 141.73L526.706 134.912C530.257 124.969 535.441 116.943 542.26 110.835C549.149 104.656 557.068 100.182 566.017 97.4119C574.966 94.571 584.376 93.1506 594.248 93.1506C600.782 93.1506 607.707 93.9318 615.022 95.4943C622.409 96.9858 629.298 99.7557 635.69 103.804C642.153 107.852 647.444 113.641 651.564 121.169C655.683 128.626 657.743 138.321 657.743 150.253V258.918H626.635V236.545H625.356C623.297 240.665 620.207 244.713 616.088 248.69C611.968 252.668 606.677 255.97 600.214 258.598C593.751 261.226 586.01 262.54 576.99 262.54ZM583.914 236.972C592.721 236.972 600.25 235.232 606.5 231.751C612.821 228.271 617.615 223.726 620.882 218.115C624.22 212.433 625.889 206.361 625.889 199.898V178.804C624.752 179.94 622.551 181.006 619.284 182C616.088 182.923 612.43 183.74 608.311 184.45C604.191 185.089 600.179 185.693 596.272 186.261C592.366 186.759 589.099 187.185 586.471 187.54C580.292 188.321 574.646 189.635 569.532 191.482C564.49 193.328 560.441 195.991 557.387 199.472C554.404 202.881 552.913 207.426 552.913 213.108C552.913 220.991 555.825 226.957 561.649 231.006C567.473 234.983 574.895 236.972 583.914 236.972Z" fill="url(#paint3_linear_224_18)"/>
    <path d="M769.097 262.22C753.259 262.22 739.623 258.634 728.188 251.46C716.825 244.216 708.089 234.237 701.981 221.524C695.873 208.811 692.819 194.251 692.819 177.845C692.819 161.226 695.944 146.56 702.194 133.847C708.444 121.062 717.251 111.084 728.614 103.911C739.978 96.7372 753.366 93.1506 768.778 93.1506C781.207 93.1506 792.286 95.4588 802.016 100.075C811.746 104.621 819.594 111.013 825.56 119.251C831.597 127.49 835.184 137.114 836.32 148.122H805.319C803.614 140.452 799.708 133.847 793.6 128.307C787.563 122.767 779.467 119.997 769.31 119.997C760.433 119.997 752.656 122.341 745.979 127.028C739.374 131.645 734.225 138.25 730.532 146.844C726.839 155.366 724.992 165.452 724.992 177.099C724.992 189.031 726.803 199.33 730.425 207.994C734.048 216.659 739.161 223.371 745.766 228.129C752.442 232.888 760.29 235.267 769.31 235.267C775.347 235.267 780.816 234.166 785.717 231.964C790.688 229.692 794.843 226.46 798.181 222.27C801.59 218.08 803.969 213.037 805.319 207.142H836.32C835.184 217.724 831.739 227.17 825.987 235.48C820.234 243.79 812.528 250.324 802.869 255.082C793.281 259.841 782.023 262.22 769.097 262.22Z" fill="url(#paint4_linear_224_18)"/>
    <path d="M870.385 258.918V95.2812H902.238V258.918H870.385ZM886.471 70.0327C880.931 70.0327 876.173 68.1861 872.196 64.4929C868.289 60.7287 866.336 56.2543 866.336 51.0696C866.336 45.8139 868.289 41.3395 872.196 37.6463C876.173 33.8821 880.931 32 886.471 32C892.011 32 896.734 33.8821 900.64 37.6463C904.618 41.3395 906.606 45.8139 906.606 51.0696C906.606 56.2543 904.618 60.7287 900.64 64.4929C896.734 68.1861 892.011 70.0327 886.471 70.0327Z" fill="url(#paint5_linear_224_18)"/>
    <path d="M1085.08 95.2812L1025.74 258.918H991.647L932.201 95.2812H966.398L1007.84 221.205H1009.54L1050.88 95.2812H1085.08Z" fill="url(#paint6_linear_224_18)"/>
    <path d="M1115.01 258.918V95.2812H1146.87V258.918H1115.01ZM1131.1 70.0327C1125.56 70.0327 1120.8 68.1861 1116.82 64.4929C1112.92 60.7287 1110.97 56.2543 1110.97 51.0696C1110.97 45.8139 1112.92 41.3395 1116.82 37.6463C1120.8 33.8821 1125.56 32 1131.1 32C1136.64 32 1141.36 33.8821 1145.27 37.6463C1149.25 41.3395 1151.24 45.8139 1151.24 51.0696C1151.24 56.2543 1149.25 60.7287 1145.27 64.4929C1141.36 68.1861 1136.64 70.0327 1131.1 70.0327Z" fill="url(#paint7_linear_224_18)"/>
    <path d="M1312.34 135.232L1283.47 140.345C1282.26 136.652 1280.35 133.136 1277.72 129.798C1275.16 126.46 1271.68 123.726 1267.28 121.595C1262.87 119.464 1257.37 118.399 1250.76 118.399C1241.74 118.399 1234.22 120.423 1228.18 124.472C1222.14 128.449 1219.12 133.598 1219.12 139.919C1219.12 145.388 1221.15 149.791 1225.2 153.129C1229.24 156.467 1235.78 159.202 1244.8 161.332L1270.79 167.298C1285.85 170.778 1297.07 176.141 1304.46 183.385C1311.84 190.629 1315.54 200.04 1315.54 211.616C1315.54 221.418 1312.7 230.153 1307.01 237.824C1301.4 245.423 1293.56 251.389 1283.47 255.722C1273.46 260.054 1261.84 262.22 1248.63 262.22C1230.31 262.22 1215.36 258.314 1203.78 250.501C1192.21 242.618 1185.1 231.432 1182.48 216.943L1213.26 212.256C1215.18 220.281 1219.12 226.354 1225.09 230.473C1231.06 234.521 1238.83 236.545 1248.42 236.545C1258.86 236.545 1267.21 234.379 1273.46 230.047C1279.71 225.643 1282.83 220.281 1282.83 213.96C1282.83 208.847 1280.91 204.55 1277.08 201.07C1273.31 197.589 1267.53 194.962 1259.71 193.186L1232.01 187.114C1216.74 183.634 1205.45 178.094 1198.14 170.494C1190.89 162.895 1187.27 153.271 1187.27 141.624C1187.27 131.964 1189.97 123.513 1195.37 116.268C1200.76 109.024 1208.22 103.378 1217.74 99.3295C1227.26 95.2102 1238.16 93.1506 1250.44 93.1506C1268.13 93.1506 1282.05 96.9858 1292.21 104.656C1302.36 112.256 1309.07 122.447 1312.34 135.232Z" fill="url(#paint8_linear_224_18)"/>
    <path d="M103.632 258.918H33V40.7358H105.869C127.247 40.7358 145.607 45.1037 160.947 53.8395C176.288 62.5043 188.043 74.9687 196.21 91.233C204.449 107.426 208.568 126.851 208.568 149.507C208.568 172.234 204.413 191.766 196.104 208.101C187.865 224.436 175.933 237.007 160.308 245.814C144.683 254.55 125.791 258.918 103.632 258.918ZM65.919 230.153H101.821C118.44 230.153 132.254 227.028 143.263 220.778C154.271 214.457 162.51 205.331 167.979 193.399C173.447 181.396 176.182 166.766 176.182 149.507C176.182 132.391 173.447 117.866 167.979 105.935C162.581 94.0028 154.52 84.9474 143.795 78.7685C133.071 72.5895 119.754 69.5 103.845 69.5H65.919V230.153Z" stroke="url(#paint9_linear_224_18)" stroke-opacity="0.5" stroke-width="2" mask="url(#path-1-outside-1_224_18)"/>
    <path d="M294.568 262.54C284.199 262.54 274.824 260.622 266.443 256.787C258.062 252.881 251.422 247.234 246.521 239.848C241.691 232.462 239.277 223.406 239.277 212.682C239.277 203.449 241.052 195.849 244.603 189.884C248.154 183.918 252.949 179.195 258.985 175.714C265.022 172.234 271.77 169.607 279.227 167.831C286.684 166.055 294.284 164.706 302.025 163.783C311.826 162.646 319.781 161.723 325.889 161.013C331.997 160.232 336.436 158.989 339.206 157.284C341.975 155.58 343.36 152.81 343.36 148.974V148.229C343.36 138.925 340.733 131.716 335.477 126.602C330.292 121.489 322.551 118.932 312.252 118.932C301.528 118.932 293.076 121.311 286.897 126.07C280.789 130.757 276.564 135.977 274.22 141.73L244.284 134.912C247.835 124.969 253.02 116.943 259.838 110.835C266.727 104.656 274.646 100.182 283.595 97.4119C292.544 94.571 301.954 93.1506 311.826 93.1506C318.36 93.1506 325.285 93.9318 332.6 95.4943C339.987 96.9858 346.876 99.7557 353.268 103.804C359.731 107.852 365.022 113.641 369.142 121.169C373.261 128.626 375.321 138.321 375.321 150.253V258.918H344.213V236.545H342.934C340.875 240.665 337.785 244.713 333.666 248.69C329.547 252.668 324.255 255.97 317.792 258.598C311.329 261.226 303.588 262.54 294.568 262.54ZM301.493 236.972C310.299 236.972 317.828 235.232 324.078 231.751C330.399 228.271 335.193 223.726 338.46 218.115C341.798 212.433 343.467 206.361 343.467 199.898V178.804C342.331 179.94 340.129 181.006 336.862 182C333.666 182.923 330.008 183.74 325.889 184.45C321.77 185.089 317.757 185.693 313.85 186.261C309.944 186.759 306.677 187.185 304.049 187.54C297.87 188.321 292.224 189.635 287.11 191.482C282.068 193.328 278.02 195.991 274.966 199.472C271.983 202.881 270.491 207.426 270.491 213.108C270.491 220.991 273.403 226.957 279.227 231.006C285.051 234.983 292.473 236.972 301.493 236.972Z" stroke="url(#paint10_linear_224_18)" stroke-opacity="0.5" stroke-width="2" mask="url(#path-1-outside-1_224_18)"/>
    <path d="M494.133 95.2812V120.849H404.751V95.2812H494.133ZM428.721 56.0767H460.575V210.871C460.575 217.05 461.498 221.702 463.344 224.827C465.191 227.881 467.57 229.976 470.482 231.112C473.465 232.178 476.697 232.71 480.177 232.71C482.734 232.71 484.971 232.533 486.888 232.178C488.806 231.822 490.298 231.538 491.363 231.325L497.116 257.639C495.269 258.349 492.641 259.06 489.232 259.77C485.823 260.551 481.562 260.977 476.448 261.048C468.067 261.19 460.255 259.699 453.011 256.574C445.766 253.449 439.907 248.619 435.433 242.085C430.958 235.551 428.721 227.348 428.721 217.476V56.0767Z" stroke="url(#paint11_linear_224_18)" stroke-opacity="0.5" stroke-width="2" mask="url(#path-1-outside-1_224_18)"/>
    <path d="M576.99 262.54C566.62 262.54 557.245 260.622 548.865 256.787C540.484 252.881 533.843 247.234 528.943 239.848C524.113 232.462 521.699 223.406 521.699 212.682C521.699 203.449 523.474 195.849 527.025 189.884C530.576 183.918 535.37 179.195 541.407 175.714C547.444 172.234 554.191 169.607 561.649 167.831C569.106 166.055 576.706 164.706 584.447 163.783C594.248 162.646 602.203 161.723 608.311 161.013C614.419 160.232 618.858 158.989 621.628 157.284C624.397 155.58 625.782 152.81 625.782 148.974V148.229C625.782 138.925 623.154 131.716 617.899 126.602C612.714 121.489 604.973 118.932 594.674 118.932C583.95 118.932 575.498 121.311 569.319 126.07C563.211 130.757 558.985 135.977 556.642 141.73L526.706 134.912C530.257 124.969 535.441 116.943 542.26 110.835C549.149 104.656 557.068 100.182 566.017 97.4119C574.966 94.571 584.376 93.1506 594.248 93.1506C600.782 93.1506 607.707 93.9318 615.022 95.4943C622.409 96.9858 629.298 99.7557 635.69 103.804C642.153 107.852 647.444 113.641 651.564 121.169C655.683 128.626 657.743 138.321 657.743 150.253V258.918H626.635V236.545H625.356C623.297 240.665 620.207 244.713 616.088 248.69C611.968 252.668 606.677 255.97 600.214 258.598C593.751 261.226 586.01 262.54 576.99 262.54ZM583.914 236.972C592.721 236.972 600.25 235.232 606.5 231.751C612.821 228.271 617.615 223.726 620.882 218.115C624.22 212.433 625.889 206.361 625.889 199.898V178.804C624.752 179.94 622.551 181.006 619.284 182C616.088 182.923 612.43 183.74 608.311 184.45C604.191 185.089 600.179 185.693 596.272 186.261C592.366 186.759 589.099 187.185 586.471 187.54C580.292 188.321 574.646 189.635 569.532 191.482C564.49 193.328 560.441 195.991 557.387 199.472C554.404 202.881 552.913 207.426 552.913 213.108C552.913 220.991 555.825 226.957 561.649 231.006C567.473 234.983 574.895 236.972 583.914 236.972Z" stroke="url(#paint12_linear_224_18)" stroke-opacity="0.5" stroke-width="2" mask="url(#path-1-outside-1_224_18)"/>
    <path d="M769.097 262.22C753.259 262.22 739.623 258.634 728.188 251.46C716.825 244.216 708.089 234.237 701.981 221.524C695.873 208.811 692.819 194.251 692.819 177.845C692.819 161.226 695.944 146.56 702.194 133.847C708.444 121.062 717.251 111.084 728.614 103.911C739.978 96.7372 753.366 93.1506 768.778 93.1506C781.207 93.1506 792.286 95.4588 802.016 100.075C811.746 104.621 819.594 111.013 825.56 119.251C831.597 127.49 835.184 137.114 836.32 148.122H805.319C803.614 140.452 799.708 133.847 793.6 128.307C787.563 122.767 779.467 119.997 769.31 119.997C760.433 119.997 752.656 122.341 745.979 127.028C739.374 131.645 734.225 138.25 730.532 146.844C726.839 155.366 724.992 165.452 724.992 177.099C724.992 189.031 726.803 199.33 730.425 207.994C734.048 216.659 739.161 223.371 745.766 228.129C752.442 232.888 760.29 235.267 769.31 235.267C775.347 235.267 780.816 234.166 785.717 231.964C790.688 229.692 794.843 226.46 798.181 222.27C801.59 218.08 803.969 213.037 805.319 207.142H836.32C835.184 217.724 831.739 227.17 825.987 235.48C820.234 243.79 812.528 250.324 802.869 255.082C793.281 259.841 782.023 262.22 769.097 262.22Z" stroke="url(#paint13_linear_224_18)" stroke-opacity="0.5" stroke-width="2" mask="url(#path-1-outside-1_224_18)"/>
    <path d="M870.385 258.918V95.2812H902.238V258.918H870.385ZM886.471 70.0327C880.931 70.0327 876.173 68.1861 872.196 64.4929C868.289 60.7287 866.336 56.2543 866.336 51.0696C866.336 45.8139 868.289 41.3395 872.196 37.6463C876.173 33.8821 880.931 32 886.471 32C892.011 32 896.734 33.8821 900.64 37.6463C904.618 41.3395 906.606 45.8139 906.606 51.0696C906.606 56.2543 904.618 60.7287 900.64 64.4929C896.734 68.1861 892.011 70.0327 886.471 70.0327Z" stroke="url(#paint14_linear_224_18)" stroke-opacity="0.5" stroke-width="2" mask="url(#path-1-outside-1_224_18)"/>
    <path d="M1085.08 95.2812L1025.74 258.918H991.647L932.201 95.2812H966.398L1007.84 221.205H1009.54L1050.88 95.2812H1085.08Z" stroke="url(#paint15_linear_224_18)" stroke-opacity="0.5" stroke-width="2" mask="url(#path-1-outside-1_224_18)"/>
    <path d="M1115.01 258.918V95.2812H1146.87V258.918H1115.01ZM1131.1 70.0327C1125.56 70.0327 1120.8 68.1861 1116.82 64.4929C1112.92 60.7287 1110.97 56.2543 1110.97 51.0696C1110.97 45.8139 1112.92 41.3395 1116.82 37.6463C1120.8 33.8821 1125.56 32 1131.1 32C1136.64 32 1141.36 33.8821 1145.27 37.6463C1149.25 41.3395 1151.24 45.8139 1151.24 51.0696C1151.24 56.2543 1149.25 60.7287 1145.27 64.4929C1141.36 68.1861 1136.64 70.0327 1131.1 70.0327Z" stroke="url(#paint16_linear_224_18)" stroke-opacity="0.5" stroke-width="2" mask="url(#path-1-outside-1_224_18)"/>
    <path d="M1312.34 135.232L1283.47 140.345C1282.26 136.652 1280.35 133.136 1277.72 129.798C1275.16 126.46 1271.68 123.726 1267.28 121.595C1262.87 119.464 1257.37 118.399 1250.76 118.399C1241.74 118.399 1234.22 120.423 1228.18 124.472C1222.14 128.449 1219.12 133.598 1219.12 139.919C1219.12 145.388 1221.15 149.791 1225.2 153.129C1229.24 156.467 1235.78 159.202 1244.8 161.332L1270.79 167.298C1285.85 170.778 1297.07 176.141 1304.46 183.385C1311.84 190.629 1315.54 200.04 1315.54 211.616C1315.54 221.418 1312.7 230.153 1307.01 237.824C1301.4 245.423 1293.56 251.389 1283.47 255.722C1273.46 260.054 1261.84 262.22 1248.63 262.22C1230.31 262.22 1215.36 258.314 1203.78 250.501C1192.21 242.618 1185.1 231.432 1182.48 216.943L1213.26 212.256C1215.18 220.281 1219.12 226.354 1225.09 230.473C1231.06 234.521 1238.83 236.545 1248.42 236.545C1258.86 236.545 1267.21 234.379 1273.46 230.047C1279.71 225.643 1282.83 220.281 1282.83 213.96C1282.83 208.847 1280.91 204.55 1277.08 201.07C1273.31 197.589 1267.53 194.962 1259.71 193.186L1232.01 187.114C1216.74 183.634 1205.45 178.094 1198.14 170.494C1190.89 162.895 1187.27 153.271 1187.27 141.624C1187.27 131.964 1189.97 123.513 1195.37 116.268C1200.76 109.024 1208.22 103.378 1217.74 99.3295C1227.26 95.2102 1238.16 93.1506 1250.44 93.1506C1268.13 93.1506 1282.05 96.9858 1292.21 104.656C1302.36 112.256 1309.07 122.447 1312.34 135.232Z" stroke="url(#paint17_linear_224_18)" stroke-opacity="0.5" stroke-width="2" mask="url(#path-1-outside-1_224_18)"/>
  </g>
  <defs>
    <filter id="filter0_d_224_18" x="0" y="0" width="1348.54" height="296.54" filterUnits="userSpaceOnUse" color-interpolation-filters="sRGB">
      <feFlood flood-opacity="0" result="BackgroundImageFix"/>
      <feColorMatrix in="SourceAlpha" type="matrix" values="0 0 0 0 0 0 0 0 0 0 0 0 0 0 0 0 0 0 127 0" result="hardAlpha"/>
      <feOffset dy="1"/>
      <feGaussianBlur stdDeviation="16"/>
      <feColorMatrix type="matrix" values="0 0 0 0 1 0 0 0 0 1 0 0 0 0 1 0 0 0 0.1 0"/>
      <feBlend mode="normal" in2="BackgroundImageFix" result="effect1_dropShadow_224_18"/>
      <feBlend mode="normal" in="SourceGraphic" in2="effect1_dropShadow_224_18" result="shape"/>
    </filter>
    <linearGradient id="paint0_linear_224_18" x1="669.53" y1="241.418" x2="669.53" y2="-145.582" gradientUnits="userSpaceOnUse">
      <stop offset="0.0434487" stop-color="white" stop-opacity="0"/>
      <stop offset="1" stop-color="white" stop-opacity="0.3"/>
    </linearGradient>
    <linearGradient id="paint1_linear_224_18" x1="669.53" y1="241.418" x2="669.53" y2="-145.582" gradientUnits="userSpaceOnUse">
      <stop offset="0.0434487" stop-color="white" stop-opacity="0"/>
      <stop offset="1" stop-color="white" stop-opacity="0.3"/>
    </linearGradient>
    <linearGradient id="paint2_linear_224_18" x1="669.53" y1="241.418" x2="669.53" y2="-145.582" gradientUnits="userSpaceOnUse">
      <stop offset="0.0434487" stop-color="white" stop-opacity="0"/>
      <stop offset="1" stop-color="white" stop-opacity="0.3"/>
    </linearGradient>
    <linearGradient id="paint3_linear_224_18" x1="669.53" y1="241.418" x2="669.53" y2="-145.582" gradientUnits="userSpaceOnUse">
      <stop offset="0.0434487" stop-color="white" stop-opacity="0"/>
      <stop offset="1" stop-color="white" stop-opacity="0.3"/>
    </linearGradient>
    <linearGradient id="paint4_linear_224_18" x1="669.53" y1="241.418" x2="669.53" y2="-145.582" gradientUnits="userSpaceOnUse">
      <stop offset="0.0434487" stop-color="white" stop-opacity="0"/>
      <stop offset="1" stop-color="white" stop-opacity="0.3"/>
    </linearGradient>
    <linearGradient id="paint5_linear_224_18" x1="669.53" y1="241.418" x2="669.53" y2="-145.582" gradientUnits="userSpaceOnUse">
      <stop offset="0.0434487" stop-color="white" stop-opacity="0"/>
      <stop offset="1" stop-color="white" stop-opacity="0.3"/>
    </linearGradient>
    <linearGradient id="paint6_linear_224_18" x1="669.53" y1="241.418" x2="669.53" y2="-145.582" gradientUnits="userSpaceOnUse">
      <stop offset="0.0434487" stop-color="white" stop-opacity="0"/>
      <stop offset="1" stop-color="white" stop-opacity="0.3"/>
    </linearGradient>
    <linearGradient id="paint7_linear_224_18" x1="669.53" y1="241.418" x2="669.53" y2="-145.582" gradientUnits="userSpaceOnUse">
      <stop offset="0.0434487" stop-color="white" stop-opacity="0"/>
      <stop offset="1" stop-color="white" stop-opacity="0.3"/>
    </linearGradient>
    <linearGradient id="paint8_linear_224_18" x1="669.53" y1="241.418" x2="669.53" y2="-145.582" gradientUnits="userSpaceOnUse">
      <stop offset="0.0434487" stop-color="white" stop-opacity="0"/>
      <stop offset="1" stop-color="white" stop-opacity="0.3"/>
    </linearGradient>
    <linearGradient id="paint9_linear_224_18" x1="669.53" y1="363.418" x2="669.53" y2="65.4176" gradientUnits="userSpaceOnUse">
      <stop stop-color="white" stop-opacity="0.5"/>
      <stop offset="1" stop-color="white" stop-opacity="0"/>
    </linearGradient>
    <linearGradient id="paint10_linear_224_18" x1="669.53" y1="363.418" x2="669.53" y2="65.4176" gradientUnits="userSpaceOnUse">
      <stop stop-color="white" stop-opacity="0.5"/>
      <stop offset="1" stop-color="white" stop-opacity="0"/>
    </linearGradient>
    <linearGradient id="paint11_linear_224_18" x1="669.53" y1="363.418" x2="669.53" y2="65.4176" gradientUnits="userSpaceOnUse">
      <stop stop-color="white" stop-opacity="0.5"/>
      <stop offset="1" stop-color="white" stop-opacity="0"/>
    </linearGradient>
    <linearGradient id="paint12_linear_224_18" x1="669.53" y1="363.418" x2="669.53" y2="65.4176" gradientUnits="userSpaceOnUse">
      <stop stop-color="white" stop-opacity="0.5"/>
      <stop offset="1" stop-color="white" stop-opacity="0"/>
    </linearGradient>
    <linearGradient id="paint13_linear_224_18" x1="669.53" y1="363.418" x2="669.53" y2="65.4176" gradientUnits="userSpaceOnUse">
      <stop stop-color="white" stop-opacity="0.5"/>
      <stop offset="1" stop-color="white" stop-opacity="0"/>
    </linearGradient>
    <linearGradient id="paint14_linear_224_18" x1="669.53" y1="363.418" x2="669.53" y2="65.4176" gradientUnits="userSpaceOnUse">
      <stop stop-color="white" stop-opacity="0.5"/>
      <stop offset="1" stop-color="white" stop-opacity="0"/>
    </linearGradient>
    <linearGradient id="paint15_linear_224_18" x1="669.53" y1="363.418" x2="669.53" y2="65.4176" gradientUnits="userSpaceOnUse">
      <stop stop-color="white" stop-opacity="0.5"/>
      <stop offset="1" stop-color="white" stop-opacity="0"/>
    </linearGradient>
    <linearGradient id="paint16_linear_224_18" x1="669.53" y1="363.418" x2="669.53" y2="65.4176" gradientUnits="userSpaceOnUse">
      <stop stop-color="white" stop-opacity="0.5"/>
      <stop offset="1" stop-color="white" stop-opacity="0"/>
    </linearGradient>
    <linearGradient id="paint17_linear_224_18" x1="669.53" y1="363.418" x2="669.53" y2="65.4176" gradientUnits="userSpaceOnUse">
      <stop stop-color="white" stop-opacity="0.5"/>
      <stop offset="1" stop-color="white" stop-opacity="0"/>
    </linearGradient>
  </defs>
</svg>

