<svg width="55" height="48" viewBox="0 0 55 48" fill="none" xmlns="http://www.w3.org/2000/svg">
<path d="M0 8.45132V39.4528L29.997 39.4002C32.4124 39.4002 34.5314 39.0246 36.3548 38.2732C38.1773 37.5227 39.7152 36.4753 40.9696 35.1319C42.2224 33.7906 43.1565 32.1735 43.7724 30.2838C44.3879 28.3957 44.6948 26.3131 44.6948 24.036C44.6948 21.6238 44.3531 19.4506 43.6697 17.5152C42.9859 15.5811 41.9947 13.9421 40.6959 12.5987C39.397 11.2561 37.7903 10.2201 35.8768 9.49141C33.9624 8.76391 31.7973 8.39875 29.3819 8.39875L0 8.45132ZM31.0229 47.799H9.89858V4.57764e-05H30.407C34.0534 4.57764e-05 37.3342 0.604202 40.2518 1.80968C43.1679 3.01637 45.6629 4.67759 47.737 6.79415C49.8103 8.91151 51.4052 11.4381 52.5225 14.374C53.6386 17.3102 54.1971 20.5312 54.1971 24.036C54.1971 27.542 53.6386 30.7512 52.5225 33.6644C51.4052 36.5776 49.8334 39.0824 47.8058 41.1755C45.777 43.2702 43.3385 44.8967 40.4908 46.0577C37.6423 47.2183 34.4857 47.799 31.0229 47.799Z" fill="url(#paint0_linear_2473_2396)"/>
<defs>
<linearGradient id="paint0_linear_2473_2396" x1="27.0986" y1="47.799" x2="27.0986" y2="4.57764e-05" gradientUnits="userSpaceOnUse">
<stop offset="0.55" stop-color="white"/>
<stop offset="1" stop-color="#999999"/>
</linearGradient>
</defs>
</svg>
