<svg xmlns:xlink="http://www.w3.org/1999/xlink" xmlns="http://www.w3.org/2000/svg" viewBox="0 0 36 36" id="svg12068110363" width="36"  height="36" ><path d="M 12 7.5 L 15 7.5 L 15 10.5 L 12 10.5 Z M 9 10.5 L 12 10.5 L 12 13.5 L 9 13.5 Z M 6 13.5 L 9 13.5 L 9 16.5 L 6 16.5 Z M 3 16.5 L 6 16.5 L 6 19.5 L 3 19.5 Z M 6 19.5 L 9 19.5 L 9 22.5 L 6 22.5 Z M 9 22.5 L 12 22.5 L 12 25.5 L 9 25.5 Z M 12 25.5 L 15 25.5 L 15 28.5 L 12 28.5 Z M 24 7.5 L 21 7.5 L 21 10.5 L 24 10.5 Z M 27 10.5 L 24 10.5 L 24 13.5 L 27 13.5 Z M 30 13.5 L 27 13.5 L 27 16.5 L 30 16.5 Z M 33 16.5 L 30 16.5 L 30 19.5 L 33 19.5 Z M 30 19.5 L 27 19.5 L 27 22.5 L 30 22.5 Z M 27 22.5 L 24 22.5 L 24 25.5 L 27 25.5 Z M 24 25.5 L 21 25.5 L 21 28.5 L 24 28.5 Z" fill="#FFFFFF"></path></svg>