<svg xmlns:xlink="http://www.w3.org/1999/xlink" xmlns="http://www.w3.org/2000/svg" viewBox="0 0 36 36" id="svg10612982892" width="36"  height="36" ><path d="M 18 1.5 L 21 1.5 L 21 13.5 L 33 13.5 L 33 19.5 L 30 19.5 L 30 16.5 L 18 16.5 L 18 7.5 L 15 7.5 L 15 4.5 L 18 4.5 Z M 12 10.5 L 12 7.5 L 15 7.5 L 15 10.5 Z M 9 13.5 L 9 10.5 L 12 10.5 L 12 13.5 Z M 6 16.5 L 6 13.5 L 9 13.5 L 9 16.5 Z M 21 28.5 L 21 31.5 L 18 31.5 L 18 34.5 L 15 34.5 L 15 22.5 L 3 22.5 L 3 16.5 L 6 16.5 L 6 19.5 L 18 19.5 L 18 28.5 Z M 24 25.5 L 24 28.5 L 21 28.5 L 21 25.5 Z M 27 22.5 L 27 25.5 L 24 25.5 L 24 22.5 Z M 27 22.5 L 30 22.5 L 30 19.5 L 27 19.5 Z" fill="#FFFFFF"></path></svg>